<svg xmlns="http://www.w3.org/2000/svg" width="1864" height="1072" viewBox="0 0 1864 1072">
<rect width="1864" height="1072" fill="#000000"/>
<g id="body">
<rect x="80.0" y="80.0" width="792.0" height="912.0" rx="40" fill="none" stroke="#ffffff" stroke-width="3" />
<rect x="90.0" y="90.0" width="772.0" height="892.0" rx="32" fill="none" stroke="#ffffff" stroke-width="1" />
<rect x="116.0" y="656.0" width="396.0" height="264.0" rx="20" fill="none" stroke="#ffffff" stroke-width="2.5" />
<rect x="124.0" y="664.0" width="380.0" height="248.0" rx="14" fill="none" stroke="#ffffff" stroke-width="1" />
<rect x="992.0" y="80.0" width="792.0" height="912.0" rx="40" fill="none" stroke="#ffffff" stroke-width="3" />
<rect x="1002.0" y="90.0" width="772.0" height="892.0" rx="32" fill="none" stroke="#ffffff" stroke-width="1" />
<rect x="1352.0" y="656.0" width="396.0" height="264.0" rx="20" fill="none" stroke="#ffffff" stroke-width="2.5" />
<rect x="1360.0" y="664.0" width="380.0" height="248.0" rx="14" fill="none" stroke="#ffffff" stroke-width="1" />
</g>
<g id="keys">
<rect x="124.0" y="124.0" width="104.0" height="104.0" rx="12" fill="none" stroke="#ffffff" stroke-width="2.5" id="key-0"/>
<rect x="244.0" y="124.0" width="104.0" height="104.0" rx="12" fill="none" stroke="#ffffff" stroke-width="2.5" id="key-1"/>
<rect x="364.0" y="124.0" width="104.0" height="104.0" rx="12" fill="none" stroke="#ffffff" stroke-width="2.5" id="key-2"/>
<rect x="484.0" y="124.0" width="104.0" height="104.0" rx="12" fill="none" stroke="#ffffff" stroke-width="2.5" id="key-3"/>
<rect x="604.0" y="124.0" width="104.0" height="104.0" rx="12" fill="none" stroke="#ffffff" stroke-width="2.5" id="key-4"/>
<rect x="1156.0" y="124.0" width="104.0" height="104.0" rx="12" fill="none" stroke="#ffffff" stroke-width="2.5" id="key-5"/>
<rect x="1276.0" y="124.0" width="104.0" height="104.0" rx="12" fill="none" stroke="#ffffff" stroke-width="2.5" id="key-6"/>
<rect x="1396.0" y="124.0" width="104.0" height="104.0" rx="12" fill="none" stroke="#ffffff" stroke-width="2.5" id="key-7"/>
<rect x="1516.0" y="124.0" width="104.0" height="104.0" rx="12" fill="none" stroke="#ffffff" stroke-width="2.5" id="key-8"/>
<rect x="1636.0" y="124.0" width="104.0" height="104.0" rx="12" fill="none" stroke="#ffffff" stroke-width="2.5" id="key-9"/>
<rect x="124.0" y="244.0" width="104.0" height="104.0" rx="12" fill="none" stroke="#ffffff" stroke-width="2.5" id="key-10"/>
<rect x="244.0" y="244.0" width="104.0" height="104.0" rx="12" fill="none" stroke="#ffffff" stroke-width="2.5" id="key-11"/>
<rect x="364.0" y="244.0" width="104.0" height="104.0" rx="12" fill="none" stroke="#ffffff" stroke-width="2.5" id="key-12"/>
<rect x="484.0" y="244.0" width="104.0" height="104.0" rx="12" fill="none" stroke="#ffffff" stroke-width="2.5" id="key-13"/>
<rect x="604.0" y="244.0" width="104.0" height="104.0" rx="12" fill="none" stroke="#ffffff" stroke-width="2.5" id="key-14"/>
<rect x="1156.0" y="244.0" width="104.0" height="104.0" rx="12" fill="none" stroke="#ffffff" stroke-width="2.5" id="key-15"/>
<rect x="1276.0" y="244.0" width="104.0" height="104.0" rx="12" fill="none" stroke="#ffffff" stroke-width="2.5" id="key-16"/>
<rect x="1396.0" y="244.0" width="104.0" height="104.0" rx="12" fill="none" stroke="#ffffff" stroke-width="2.5" id="key-17"/>
<rect x="1516.0" y="244.0" width="104.0" height="104.0" rx="12" fill="none" stroke="#ffffff" stroke-width="2.5" id="key-18"/>
<rect x="1636.0" y="244.0" width="104.0" height="104.0" rx="12" fill="none" stroke="#ffffff" stroke-width="2.5" id="key-19"/>
<rect x="124.0" y="364.0" width="104.0" height="104.0" rx="12" fill="none" stroke="#ffffff" stroke-width="2.5" id="key-20"/>
<rect x="244.0" y="364.0" width="104.0" height="104.0" rx="12" fill="none" stroke="#ffffff" stroke-width="2.5" id="key-21"/>
<rect x="364.0" y="364.0" width="104.0" height="104.0" rx="12" fill="none" stroke="#ffffff" stroke-width="2.5" id="key-22"/>
<rect x="484.0" y="364.0" width="104.0" height="104.0" rx="12" fill="none" stroke="#ffffff" stroke-width="2.5" id="key-23"/>
<rect x="604.0" y="364.0" width="104.0" height="104.0" rx="12" fill="none" stroke="#ffffff" stroke-width="2.5" id="key-24"/>
<rect x="1156.0" y="364.0" width="104.0" height="104.0" rx="12" fill="none" stroke="#ffffff" stroke-width="2.5" id="key-25"/>
<rect x="1276.0" y="364.0" width="104.0" height="104.0" rx="12" fill="none" stroke="#ffffff" stroke-width="2.5" id="key-26"/>
<rect x="1396.0" y="364.0" width="104.0" height="104.0" rx="12" fill="none" stroke="#ffffff" stroke-width="2.5" id="key-27"/>
<rect x="1516.0" y="364.0" width="104.0" height="104.0" rx="12" fill="none" stroke="#ffffff" stroke-width="2.5" id="key-28"/>
<rect x="1636.0" y="364.0" width="104.0" height="104.0" rx="12" fill="none" stroke="#ffffff" stroke-width="2.5" id="key-29"/>
<rect x="124.0" y="484.0" width="104.0" height="104.0" rx="12" fill="none" stroke="#ffffff" stroke-width="2.5" id="key-30"/>
<rect x="244.0" y="484.0" width="104.0" height="104.0" rx="12" fill="none" stroke="#ffffff" stroke-width="2.5" id="key-31"/>
<rect x="364.0" y="484.0" width="104.0" height="104.0" rx="12" fill="none" stroke="#ffffff" stroke-width="2.5" id="key-32"/>
<rect x="484.0" y="484.0" width="104.0" height="104.0" rx="12" fill="none" stroke="#ffffff" stroke-width="2.5" id="key-33"/>
<rect x="604.0" y="484.0" width="104.0" height="104.0" rx="12" fill="none" stroke="#ffffff" stroke-width="2.5" id="key-34"/>
<rect x="724.0" y="484.0" width="104.0" height="104.0" rx="12" fill="none" stroke="#ffffff" stroke-width="2.5" id="key-35"/>
<rect x="1036.0" y="484.0" width="104.0" height="104.0" rx="12" fill="none" stroke="#ffffff" stroke-width="2.5" id="key-36"/>
<rect x="1156.0" y="484.0" width="104.0" height="104.0" rx="12" fill="none" stroke="#ffffff" stroke-width="2.5" id="key-37"/>
<rect x="1276.0" y="484.0" width="104.0" height="104.0" rx="12" fill="none" stroke="#ffffff" stroke-width="2.5" id="key-38"/>
<rect x="1396.0" y="484.0" width="104.0" height="104.0" rx="12" fill="none" stroke="#ffffff" stroke-width="2.5" id="key-39"/>
<rect x="1516.0" y="484.0" width="104.0" height="104.0" rx="12" fill="none" stroke="#ffffff" stroke-width="2.5" id="key-40"/>
<rect x="1636.0" y="484.0" width="104.0" height="104.0" rx="12" fill="none" stroke="#ffffff" stroke-width="2.5" id="key-41"/>
<rect x="660.8" y="762.8" width="50.4" height="50.4" rx="8" fill="none" stroke="#ffffff" stroke-width="2" id="key-42"/>
<rect x="720.8" y="762.8" width="50.4" height="50.4" rx="8" fill="none" stroke="#ffffff" stroke-width="2" id="key-43"/>
<rect x="660.8" y="822.8" width="50.4" height="50.4" rx="8" fill="none" stroke="#ffffff" stroke-width="2" id="key-44"/>
<rect x="600.8" y="762.8" width="50.4" height="50.4" rx="8" fill="none" stroke="#ffffff" stroke-width="2" id="key-45"/>
<rect x="660.8" y="702.8" width="50.4" height="50.4" rx="8" fill="none" stroke="#ffffff" stroke-width="2" id="key-46"/>
<rect x="1152.8" y="702.8" width="50.4" height="50.4" rx="8" fill="none" stroke="#ffffff" stroke-width="2" id="key-47"/>
<rect x="1092.8" y="762.8" width="50.4" height="50.4" rx="8" fill="none" stroke="#ffffff" stroke-width="2" id="key-48"/>
<rect x="1152.8" y="822.8" width="50.4" height="50.4" rx="8" fill="none" stroke="#ffffff" stroke-width="2" id="key-49"/>
<rect x="1212.8" y="762.8" width="50.4" height="50.4" rx="8" fill="none" stroke="#ffffff" stroke-width="2" id="key-50"/>
<rect x="1152.8" y="762.8" width="50.4" height="50.4" rx="8" fill="none" stroke="#ffffff" stroke-width="2" id="key-51"/>
<rect x="131.0" y="674.0" width="118.0" height="102.0" rx="6" fill="none" stroke="#ffffff" stroke-width="1.5" id="key-52" stroke-dasharray="4 3"/>
<rect x="255.0" y="674.0" width="118.0" height="102.0" rx="6" fill="none" stroke="#ffffff" stroke-width="1.5" id="key-53" stroke-dasharray="4 3"/>
<rect x="379.0" y="674.0" width="118.0" height="102.0" rx="6" fill="none" stroke="#ffffff" stroke-width="1.5" id="key-54" stroke-dasharray="4 3"/>
<rect x="1367.0" y="674.0" width="118.0" height="102.0" rx="6" fill="none" stroke="#ffffff" stroke-width="1.5" id="key-55" stroke-dasharray="4 3"/>
<rect x="1491.0" y="674.0" width="118.0" height="102.0" rx="6" fill="none" stroke="#ffffff" stroke-width="1.5" id="key-56" stroke-dasharray="4 3"/>
<rect x="1615.0" y="674.0" width="118.0" height="102.0" rx="6" fill="none" stroke="#ffffff" stroke-width="1.5" id="key-57" stroke-dasharray="4 3"/>
<rect x="131.0" y="788.0" width="68.4" height="102.0" rx="6" fill="none" stroke="#ffffff" stroke-width="1.5" id="key-58" stroke-dasharray="4 3"/>
<rect x="205.4" y="788.0" width="68.4" height="102.0" rx="6" fill="none" stroke="#ffffff" stroke-width="1.5" id="key-59" stroke-dasharray="4 3"/>
<rect x="279.8" y="788.0" width="68.4" height="102.0" rx="6" fill="none" stroke="#ffffff" stroke-width="1.5" id="key-60" stroke-dasharray="4 3"/>
<rect x="354.2" y="788.0" width="68.4" height="102.0" rx="6" fill="none" stroke="#ffffff" stroke-width="1.5" id="key-61" stroke-dasharray="4 3"/>
<rect x="428.6" y="788.0" width="68.4" height="102.0" rx="6" fill="none" stroke="#ffffff" stroke-width="1.5" id="key-62" stroke-dasharray="4 3"/>
<rect x="1367.0" y="788.0" width="68.4" height="102.0" rx="6" fill="none" stroke="#ffffff" stroke-width="1.5" id="key-63" stroke-dasharray="4 3"/>
<rect x="1441.4" y="788.0" width="68.4" height="102.0" rx="6" fill="none" stroke="#ffffff" stroke-width="1.5" id="key-64" stroke-dasharray="4 3"/>
<rect x="1515.8" y="788.0" width="68.4" height="102.0" rx="6" fill="none" stroke="#ffffff" stroke-width="1.5" id="key-65" stroke-dasharray="4 3"/>
<rect x="1590.2" y="788.0" width="68.4" height="102.0" rx="6" fill="none" stroke="#ffffff" stroke-width="1.5" id="key-66" stroke-dasharray="4 3"/>
<rect x="1664.6" y="788.0" width="68.4" height="102.0" rx="6" fill="none" stroke="#ffffff" stroke-width="1.5" id="key-67" stroke-dasharray="4 3"/>
</g>
<g id="gesture-labels" font-family="Helvetica Neue, Helvetica, Arial, sans-serif" font-size="12" fill="#9a9a9a" text-anchor="middle">
<text x="190.0" y="689.0">1 tap</text>
<text x="314.0" y="689.0">2 tap</text>
<text x="438.0" y="689.0">3 tap</text>
<text x="1426.0" y="689.0">1 tap</text>
<text x="1550.0" y="689.0">2 tap</text>
<text x="1674.0" y="689.0">3 tap</text>
<text x="165.2" y="803.0">3← swipe</text>
<text x="239.6" y="803.0">3→ swipe</text>
<text x="314.0" y="803.0">3↑ swipe</text>
<text x="388.4" y="803.0">3↓ swipe</text>
<text x="462.8" y="803.0">pinch</text>
<text x="1401.2" y="803.0">3← swipe</text>
<text x="1475.6" y="803.0">3→ swipe</text>
<text x="1550.0" y="803.0">3↑ swipe</text>
<text x="1624.4" y="803.0">3↓ swipe</text>
<text x="1698.8" y="803.0">pinch</text>
</g>
<g id="labels" font-family="Helvetica Neue, Helvetica, Arial, sans-serif">
<text x="932.0" y="40.0" font-size="28.0" fill="#ffffff" font-weight="bold" text-anchor="middle" dominant-baseline="middle">Layer 2: tertiary_layer</text>
<text x="176.0" y="176.0" font-size="26.0" fill="#ffffff" font-weight="bold" text-anchor="middle" dominant-baseline="middle">F1</text>
<text x="296.0" y="176.0" font-size="26.0" fill="#ffffff" font-weight="bold" text-anchor="middle" dominant-baseline="middle">F2</text>
<text x="416.0" y="176.0" font-size="26.0" fill="#ffffff" font-weight="bold" text-anchor="middle" dominant-baseline="middle">F3</text>
<text x="536.0" y="176.0" font-size="26.0" fill="#ffffff" font-weight="bold" text-anchor="middle" dominant-baseline="middle">F4</text>
<text x="656.0" y="176.0" font-size="26.0" fill="#ffffff" font-weight="bold" text-anchor="middle" dominant-baseline="middle">F5</text>
<text x="1208.0" y="176.0" font-size="26.0" fill="#ffffff" font-weight="bold" text-anchor="middle" dominant-baseline="middle">F6</text>
<text x="1328.0" y="176.0" font-size="26.0" fill="#ffffff" font-weight="bold" text-anchor="middle" dominant-baseline="middle">F7</text>
<text x="1448.0" y="176.0" font-size="26.0" fill="#ffffff" font-weight="bold" text-anchor="middle" dominant-baseline="middle">F8</text>
<text x="1568.0" y="176.0" font-size="26.0" fill="#ffffff" font-weight="bold" text-anchor="middle" dominant-baseline="middle">F9</text>
<text x="1688.0" y="176.0" font-size="26.0" fill="#ffffff" font-weight="bold" text-anchor="middle" dominant-baseline="middle">F10</text>




















<text x="176.0" y="536.0" font-size="14.0" fill="#666666" font-weight="normal" text-anchor="middle" dominant-baseline="middle">▽</text>
<text x="296.0" y="536.0" font-size="14.0" fill="#666666" font-weight="normal" text-anchor="middle" dominant-baseline="middle">▽</text>
<text x="416.0" y="536.0" font-size="14.0" fill="#666666" font-weight="normal" text-anchor="middle" dominant-baseline="middle">▽</text>
<text x="536.0" y="536.0" font-size="14.0" fill="#666666" font-weight="normal" text-anchor="middle" dominant-baseline="middle">▽</text>
<text x="656.0" y="536.0" font-size="14.0" fill="#666666" font-weight="normal" text-anchor="middle" dominant-baseline="middle">▽</text>
<text x="776.0" y="536.0" font-size="14.0" fill="#666666" font-weight="normal" text-anchor="middle" dominant-baseline="middle">▽</text>
<text x="1088.0" y="536.0" font-size="14.0" fill="#666666" font-weight="normal" text-anchor="middle" dominant-baseline="middle">▽</text>
<text x="1208.0" y="536.0" font-size="14.0" fill="#666666" font-weight="normal" text-anchor="middle" dominant-baseline="middle">▽</text>
<text x="1328.0" y="536.0" font-size="14.0" fill="#666666" font-weight="normal" text-anchor="middle" dominant-baseline="middle">▽</text>
<text x="1448.0" y="536.0" font-size="14.0" fill="#666666" font-weight="normal" text-anchor="middle" dominant-baseline="middle">▽</text>


<text x="686.0" y="788.0" font-size="14.0" fill="#666666" font-weight="normal" text-anchor="middle" dominant-baseline="middle">▽</text>
<text x="746.0" y="788.0" font-size="14.0" fill="#666666" font-weight="normal" text-anchor="middle" dominant-baseline="middle">▽</text>
<text x="686.0" y="848.0" font-size="14.0" fill="#666666" font-weight="normal" text-anchor="middle" dominant-baseline="middle">▽</text>
<text x="626.0" y="788.0" font-size="14.0" fill="#666666" font-weight="normal" text-anchor="middle" dominant-baseline="middle">▽</text>
<text x="686.0" y="728.0" font-size="14.0" fill="#666666" font-weight="normal" text-anchor="middle" dominant-baseline="middle">▽</text>
<text x="1178.0" y="728.0" font-size="14.0" fill="#666666" font-weight="normal" text-anchor="middle" dominant-baseline="middle">▽</text>
<text x="1118.0" y="788.0" font-size="14.0" fill="#666666" font-weight="normal" text-anchor="middle" dominant-baseline="middle">▽</text>
<text x="1178.0" y="848.0" font-size="14.0" fill="#666666" font-weight="normal" text-anchor="middle" dominant-baseline="middle">▽</text>
<text x="1238.0" y="788.0" font-size="14.0" fill="#666666" font-weight="normal" text-anchor="middle" dominant-baseline="middle">▽</text>
<text x="1178.0" y="788.0" font-size="14.0" fill="#666666" font-weight="normal" text-anchor="middle" dominant-baseline="middle">▽</text>
<text x="190.0" y="725.0" font-size="14.0" fill="#666666" font-weight="normal" text-anchor="middle" dominant-baseline="middle">▽</text>
<text x="314.0" y="725.0" font-size="14.0" fill="#666666" font-weight="normal" text-anchor="middle" dominant-baseline="middle">▽</text>
<text x="438.0" y="725.0" font-size="14.0" fill="#666666" font-weight="normal" text-anchor="middle" dominant-baseline="middle">▽</text>
<text x="1426.0" y="725.0" font-size="14.0" fill="#666666" font-weight="normal" text-anchor="middle" dominant-baseline="middle">▽</text>
<text x="1550.0" y="725.0" font-size="14.0" fill="#666666" font-weight="normal" text-anchor="middle" dominant-baseline="middle">▽</text>
<text x="1674.0" y="725.0" font-size="14.0" fill="#666666" font-weight="normal" text-anchor="middle" dominant-baseline="middle">▽</text>
<text x="165.2" y="839.0" font-size="14.0" fill="#666666" font-weight="normal" text-anchor="middle" dominant-baseline="middle">▽</text>
<text x="239.6" y="839.0" font-size="14.0" fill="#666666" font-weight="normal" text-anchor="middle" dominant-baseline="middle">▽</text>
<text x="314.0" y="839.0" font-size="14.0" fill="#666666" font-weight="normal" text-anchor="middle" dominant-baseline="middle">▽</text>
<text x="388.4" y="839.0" font-size="14.0" fill="#666666" font-weight="normal" text-anchor="middle" dominant-baseline="middle">▽</text>
<text x="462.8" y="839.0" font-size="14.0" fill="#666666" font-weight="normal" text-anchor="middle" dominant-baseline="middle">▽</text>
<text x="1401.2" y="839.0" font-size="14.0" fill="#666666" font-weight="normal" text-anchor="middle" dominant-baseline="middle">▽</text>
<text x="1475.6" y="839.0" font-size="14.0" fill="#666666" font-weight="normal" text-anchor="middle" dominant-baseline="middle">▽</text>
<text x="1550.0" y="839.0" font-size="14.0" fill="#666666" font-weight="normal" text-anchor="middle" dominant-baseline="middle">▽</text>
<text x="1624.4" y="839.0" font-size="14.0" fill="#666666" font-weight="normal" text-anchor="middle" dominant-baseline="middle">▽</text>
<text x="1698.8" y="839.0" font-size="14.0" fill="#666666" font-weight="normal" text-anchor="middle" dominant-baseline="middle">▽</text>

</g>
</svg>
